<svg width="2343" height="1104" xmlns="http://www.w3.org/2000/svg" xmlns:xlink="http://www.w3.org/1999/xlink" xml:space="preserve" overflow="hidden"><defs><clipPath id="clip0"><rect x="373" y="492" width="2343" height="1104"/></clipPath></defs><g clip-path="url(#clip0)" transform="translate(-373 -492)"><path d="M392.812 1534C326.771 1360.33 458.854 1186.67 392.812 1013 326.771 839.333 458.854 665.667 392.812 492L670.187 492C736.229 665.667 604.146 839.333 670.187 1013 736.229 1186.67 604.146 1360.33 670.187 1534Z" fill="#4F81BD" fill-rule="evenodd"/><path d="M2363 911 2679.56 998.712" stroke="#FFC000" stroke-width="27.5" stroke-linejoin="round" stroke-miterlimit="10" fill="none" fill-rule="evenodd"/><path d="M1263.5 1237.5C1263.5 1178.96 1310.96 1131.5 1369.5 1131.5 1428.04 1131.5 1475.5 1178.96 1475.5 1237.5 1475.5 1296.04 1428.04 1343.5 1369.5 1343.5 1310.96 1343.5 1263.5 1296.04 1263.5 1237.5Z" stroke="#7F7F7F" stroke-width="9.16667" stroke-linejoin="round" stroke-miterlimit="10" fill="#4F81BD" fill-rule="evenodd"/><path d="M0 0 106.816 22.611" stroke="#BE4B48" stroke-width="27.5" stroke-linejoin="round" stroke-miterlimit="10" fill="none" fill-rule="evenodd" transform="matrix(-1 0 0 1 1504.82 1200)"/><path d="M0 0 106.816 22.611" stroke="#BE4B48" stroke-width="27.5" stroke-linejoin="round" stroke-miterlimit="10" fill="none" fill-rule="evenodd" transform="matrix(-1 0 0 1 1506.82 1269)"/><path d="M1832.5 911.5C1832.5 852.958 1879.96 805.5 1938.5 805.5 1997.04 805.5 2044.5 852.958 2044.5 911.5 2044.5 970.042 1997.04 1017.5 1938.5 1017.5 1879.96 1017.5 1832.5 970.042 1832.5 911.5Z" stroke="#7F7F7F" stroke-width="9.16667" stroke-linejoin="round" stroke-miterlimit="10" fill="#4F81BD" fill-rule="evenodd"/><path d="M2073.22 873.732 1968 862" stroke="#BE4B48" stroke-width="27.5" stroke-linejoin="round" stroke-miterlimit="10" fill="none" fill-rule="evenodd"/><path d="M2074.82 942.56 1968 934" stroke="#BE4B48" stroke-width="27.5" stroke-linejoin="round" stroke-miterlimit="10" fill="none" fill-rule="evenodd"/><rect x="2073.5" y="823.5" width="290" height="175" stroke="#000000" stroke-width="9.16667" stroke-linejoin="round" stroke-miterlimit="10" fill="#003399"/><text fill="#FFFFFF" font-family="Arial,Arial_MSFontService,sans-serif" font-weight="400" font-size="73" transform="matrix(1 0 0 1 2198.02 938)">3</text><path d="M1919.66 982.443C1926.24 1092.53 1870.5 1185.41 1795.16 1189.91" stroke="#FFC000" stroke-width="27.5" stroke-linejoin="round" stroke-miterlimit="10" fill="none" fill-rule="evenodd"/><rect x="1505.5" y="1149.5" width="290" height="175" stroke="#000000" stroke-width="9.16667" stroke-linejoin="round" stroke-miterlimit="10" fill="#003399"/><text fill="#FFFFFF" font-family="Arial,Arial_MSFontService,sans-serif" font-weight="400" font-size="73" transform="matrix(1 0 0 1 1629.66 1264)">2</text><path d="M791.796 905.185 581 862" stroke="#BE4B48" stroke-width="27.5" stroke-linejoin="round" stroke-miterlimit="10" fill="none" fill-rule="evenodd"/><path d="M795.796 963.185 585 920" stroke="#BE4B48" stroke-width="27.5" stroke-linejoin="round" stroke-miterlimit="10" fill="none" fill-rule="evenodd"/><path d="M1081.61 946.036C1224.15 931.413 1351.61 1035.64 1366.3 1178.83" stroke="#FFC000" stroke-width="27.5" stroke-linejoin="round" stroke-miterlimit="10" fill="none" fill-rule="evenodd"/><rect x="789.5" y="840.5" width="290" height="176" stroke="#000000" stroke-width="9.16667" stroke-linejoin="round" stroke-miterlimit="10" fill="#003399"/><text fill="#FFFFFF" font-family="Arial,Arial_MSFontService,sans-serif" font-weight="400" font-size="73" transform="matrix(1 0 0 1 913.214 955)">1</text><path d="M1191.47 861.081 1398.34 1002.41 1396.4 1005.25 1189.53 863.919ZM1401.34 989.89 1416.29 1016.76 1385.83 1012.6Z" fill="#4A7EBB"/><path d="M1.19077-1.23943 80.3781 74.8391 77.9966 77.3179-1.19077 1.23943ZM85.4083 62.9877 95.713 91.9554 66.356 82.8185Z" fill="#4A7EBB" transform="matrix(1 0 0 -1 1925.5 1220.46)"/><path d="M2472.97 872.848 2578.64 903.114 2577.69 906.419 2472.03 876.152ZM2577.55 890.286 2600.2 911.077 2569.97 916.723Z" fill="#4A7EBB"/><rect x="2182.5" y="1376.5" width="57" height="54" stroke="#FFC000" stroke-width="9.16667" stroke-linejoin="round" stroke-miterlimit="10" fill="#FFC000"/><text font-family="Arial,Arial_MSFontService,sans-serif" font-weight="400" font-size="73" transform="matrix(1 0 0 1 2265.05 1432)">Druckleitung</text><rect x="2182.5" y="1479.5" width="57" height="55" stroke="#BE4B48" stroke-width="9.16667" stroke-linejoin="round" stroke-miterlimit="10" fill="#BE4B48"/><text font-family="Arial,Arial_MSFontService,sans-serif" font-weight="400" font-size="73" transform="matrix(1 0 0 1 2268.31 1534)">Sau</text><text font-family="Arial,Arial_MSFontService,sans-serif" font-weight="400" font-size="73" transform="matrix(1 0 0 1 2398.37 1534)">g</text><text font-family="Arial,Arial_MSFontService,sans-serif" font-weight="400" font-size="73" transform="matrix(1 0 0 1 2439.04 1534)">leitung</text></g></svg>