<svg width="53.403549" height="54.132885" viewBox ="0.000000 0.000000 53.403549 54.132885" xmlns="http://www.w3.org/2000/svg"> 
<g id="Modell">
<g id="${name.xy_plane}">
<circle id="Aussen" cx="25.966814" cy="27.066442" r="24.373831" fill="white" />
<g id="pump-icon-2">
<circle id="${name.arc}40" cx="25.966814" cy="27.066442" r="11.622440" stroke="#003399" stroke-width="3.000000" fill="none" />
<line  id="${name.line}17" x1="14.344374" y1="27.066442" x2="14.344374" y2="10.257277" stroke="#003399" stroke-width="3.000000" />
<line  id="${name.line}19" x1="19.984238" y1="17.102010" x2="19.984238" y2="10.257277" stroke="#003399" stroke-width="3.000000" />
<g id="${name.group}7">
<line  id="${name.line}22" x1="19.984238" y1="8.657277" x2="14.344374" y2="8.657277" stroke="#003399" stroke-width="3.000000" />
<path id="${name.arc}43" d=" M 14.344374 8.657277 A 0.800000 0.800000 0.000000 0 0 14.344374 10.257277" stroke="#003399" stroke-width="3.000000" fill="none" />
<line  id="${name.line}23" x1="14.344374" y1="10.257277" x2="19.984238" y2="10.257277" stroke="#003399" stroke-width="3.000000" />
<path id="${name.arc}44" d=" M 19.984238 10.257277 A 0.800000 0.800000 0.000000 0 0 19.984238 8.657277" stroke="#003399" stroke-width="3.000000" fill="none" />
</g>
<circle id="${name.arc}45" cx="25.966814" cy="27.066442" r="3.677294" stroke="#003399" stroke-width="3.000000" fill="none" />
<line  id="${name.line}28" x1="31.949389" y1="37.030873" x2="31.949389" y2="43.875606" stroke="#003399" stroke-width="3.000000" />
<line  id="${name.line}29" x1="37.589253" y1="27.066442" x2="37.589253" y2="43.875606" stroke="#003399" stroke-width="3.000000" />
<g id="${name.group}9">
<line  id="${name.line}30" x1="31.949389" y1="45.475606" x2="37.589253" y2="45.475606" stroke="#003399" stroke-width="3.000000" />
<path id="${name.arc}48" d=" M 37.589253 45.475606 A 0.800000 0.800000 0.000000 0 0 37.589253 43.875606" stroke="#003399" stroke-width="3.000000" fill="none" />
<line  id="${name.line}31" x1="37.589253" y1="43.875606" x2="31.949389" y2="43.875606" stroke="#003399" stroke-width="3.000000" />
<path id="${name.arc}49" d=" M 31.949389 43.875606 A 0.800000 0.800000 0.000000 0 0 31.949389 45.475606" stroke="#003399" stroke-width="3.000000" fill="none" />
</g>
</g>
</g>
</g>
</svg>