<svg width="30.598202" height="33.981522" viewBox ="0.000000 0.000000 30.598202 33.981522" xmlns="http://www.w3.org/2000/svg"> 
<g id="Modell">
<g id="${name.xy_plane}">
<g id="Pump-Icon">
<g id="Drehkolben1">
<path id="${name.arc}11" d=" M 9.353924 8.549491 A 5.000000 5.000000 0.000000 1 1 18.839799 5.523408" stroke-width="1.000000" fill="none" />
<path id="${name.arc}13" d=" M 5.439715 26.839234 A 5.000000 5.000000 0.000000 0 1 3.202448 17.242306" stroke-width="1.000000" fill="none" />
<path id="${name.bezier}13" d=" M 13.870134 22.001202 A 4.905070 4.905070 0.000000 0 1 13.912844 22.000648 A 4.996834 4.996834 0.000000 0 1 13.955858 22.000463" stroke-width="1.000000" fill="none" />
<path id="${name.bezier}8" d=" M 14.792797 22.075266 L 14.791319 22.074993" stroke-width="1.000000" fill="none" />
<path id="${name.bezier}9" d=" M 3.202448 17.242306 A 9.332495 9.332495 0.000000 0 1 4.141316 16.903348 A 18.569063 18.569063 0.000000 0 1 5.049383 16.654372 A 61.545718 61.545718 0.000000 0 1 5.918759 16.446235 A 12.461689 12.461689 0.000000 0 0 6.740457 16.226005 A 7.043401 7.043401 0.000000 0 0 7.505993 15.943112 A 3.990488 3.990488 0.000000 0 0 8.207631 15.547863 A 3.604353 3.604353 0.000000 0 0 8.834342 14.985714 A 4.456574 4.456574 0.000000 0 0 9.382869 14.210603" stroke-width="1.000000" fill="none" />
<path id="${name.bezier}10" d=" M 9.345434 8.551627 A 126.246943 126.246943 0.000000 0 0 9.702344 9.936624 A 8.696560 8.696560 0.000000 0 1 9.951047 11.333311 A 6.094502 6.094502 0.000000 0 1 9.976868 12.039788 A 4.697554 4.697554 0.000000 0 1 9.906713 12.753810 A 4.456468 4.456468 0.000000 0 1 9.715687 13.476658 A 4.837777 4.837777 0.000000 0 1 9.382869 14.210603" stroke-width="1.000000" fill="none" />
<path id="${name.arc}14" d=" M 10.315436 31.510250 A 15.168817 15.168817 0.000000 0 0 12.927747 31.919592" stroke-width="1.000000" fill="none" />
<path id="${name.arc}43" d=" M 24.889843 27.305107 A 15.168817 15.168817 0.000000 0 0 26.550391 25.247570" stroke-width="1.000000" fill="none" />
<path id="${name.arc}42" d=" M 28.535393 12.581524 A 15.168817 15.168817 0.000000 0 0 27.583945 10.114713" stroke-width="1.000000" fill="none" />
<path id="${name.bezier}11" d=" M 18.839799 5.523408 A 5.367125 5.367125 0.000000 0 1 18.961132 6.859750 A 7.349744 7.349744 0.000000 0 1 18.812087 8.098347 A 12.253111 12.253111 0.000000 0 1 18.508407 9.267852 A 26.303048 26.303048 0.000000 0 0 18.182238 10.397792" stroke-width="1.000000" fill="none" />
<path id="${name.bezier}12" d=" M 18.550480 14.244845 A 4.847392 4.847392 0.000000 0 1 18.522531 14.198110 A 4.947235 4.947235 0.000000 0 1 18.494880 14.150681" stroke-width="1.000000" fill="none" />
</g>
<g id="Kreiselrad1">
<path id="${name.spline}18" d=" M 10.315436 31.510250 A 105.666137 105.666137 0.000000 0 0 10.950436 30.699795 A 20.659850 20.659850 0.000000 0 0 11.558555 29.874300 A 14.534246 14.534246 0.000000 0 0 12.112987 29.018797 A 9.205991 9.205991 0.000000 0 0 12.587083 28.118388 A 9.241457 9.241457 0.000000 0 0 13.022838 26.970764 A 14.615447 14.615447 0.000000 0 0 13.332932 25.777408 A 20.396230 20.396230 0.000000 0 0 13.556739 24.558987 A 80.179229 80.179229 0.000000 0 0 13.733531 23.336172 A 19.799913 19.799913 0.000000 0 0 13.892290 21.623393 A 99.593050 99.593050 0.000000 0 0 13.961760 19.901555" stroke-width="1.000000" fill="none" />
<path id="${name.arc}17" d=" M 11.632488 18.855100 A 3.115554 3.115554 0.000000 0 1 15.386434 14.015265" stroke-width="1.000000" fill="none" />
<path id="${name.arc}18" d=" M 16.191040 14.609540 A 3.115554 3.115554 0.000000 0 1 12.408226 19.486596" stroke-width="1.000000" fill="none" />
<path id="${name.spline}21" d=" M 8.940288 14.845598 L 8.940871 14.845862" stroke-width="1.000000" fill="none" />
<path id="${name.spline}24" d=" M 17.607945 2.061928 L 17.607807 2.062103" stroke-width="1.000000" fill="none" />
<path id="${name.spline}25" d=" M 27.584777 10.114689 A 105.602374 105.602374 0.000000 0 0 26.555818 10.149202 A 20.658217 20.658217 0.000000 0 0 25.532617 10.213976 A 14.533659 14.533659 0.000000 0 0 24.520938 10.339163 A 9.205946 9.205946 0.000000 0 0 23.526497 10.554747 A 9.241457 9.241457 0.000000 0 0 22.367268 10.958618 A 14.615447 14.615447 0.000000 0 0 21.253780 11.488147 A 20.396230 20.396230 0.000000 0 0 20.176555 12.099887 A 80.179229 80.179229 0.000000 0 0 19.126184 12.750467 A 19.799913 19.799913 0.000000 0 0 17.712071 13.729803 A 99.593050 99.593050 0.000000 0 0 16.348412 14.783362" stroke-width="1.000000" fill="none" />
<path id="${name.spline}26" d=" M 28.536274 12.581654 A 105.602374 105.602374 0.000000 0 0 27.516954 12.436966 A 20.658217 20.658217 0.000000 0 0 26.498050 12.323079 A 14.533659 14.533659 0.000000 0 0 25.480002 12.270687 A 9.205946 9.205946 0.000000 0 0 24.463233 12.310313 A 9.241457 9.241457 0.000000 0 0 23.251484 12.506750 A 14.615447 14.615447 0.000000 0 0 22.062960 12.834879 A 20.396230 20.396230 0.000000 0 0 20.895873 13.250267 A 80.179229 80.179229 0.000000 0 0 19.748488 13.708568 A 19.799913 19.799913 0.000000 0 0 18.185798 14.427468 A 99.593050 99.593050 0.000000 0 0 16.659908 15.228225" stroke-width="1.000000" fill="none" />
<path id="${name.spline}27" d=" M 26.550794 25.248225 A 105.602374 105.602374 0.000000 0 0 26.006425 24.374376 A 20.658217 20.658217 0.000000 0 0 25.438729 23.520645 A 14.533659 14.533659 0.000000 0 0 24.824475 22.707099 A 9.205946 9.205946 0.000000 0 0 24.140553 21.953680 A 9.241457 9.241457 0.000000 0 0 23.211176 21.151694 A 14.615447 14.615447 0.000000 0 0 22.195846 20.452149 A 20.396230 20.396230 0.000000 0 0 21.127452 19.825114 A 80.179229 80.179229 0.000000 0 0 20.038847 19.240756 A 19.799913 19.799913 0.000000 0 0 18.483661 18.505767 A 99.593050 99.593050 0.000000 0 0 16.889423 17.851584" stroke-width="1.000000" fill="none" />
<path id="${name.spline}28" d=" M 24.889843 27.305107 A 105.412881 105.412881 0.000000 0 0 24.505541 26.350164 A 20.653395 20.653395 0.000000 0 0 24.094769 25.410986 A 14.531920 14.531920 0.000000 0 0 23.631177 24.503291 A 9.205815 9.205815 0.000000 0 0 23.088556 23.642700 A 9.241457 9.241457 0.000000 0 0 22.312562 22.691513 A 14.615447 14.615447 0.000000 0 0 21.434132 21.826286 A 20.396230 20.396230 0.000000 0 0 20.490852 21.023253 A 80.179229 80.179229 0.000000 0 0 19.520259 20.258738 A 19.799913 19.799913 0.000000 0 0 18.116329 19.264859 A 99.593050 99.593050 0.000000 0 0 16.659908 18.343778" stroke-width="1.000000" fill="none" />
<path id="${name.spline}29" d=" M 12.927746 31.919593 A 105.620608 105.620608 0.000000 0 0 13.412345 31.011218 A 20.658681 20.658681 0.000000 0 0 13.867858 30.092699 A 14.533826 14.533826 0.000000 0 0 14.265291 29.153952 A 9.205959 9.205959 0.000000 0 0 14.575815 28.184934 A 9.241457 9.241457 0.000000 0 0 14.805667 26.979077 A 14.615447 14.615447 0.000000 0 0 14.903826 25.750003 A 20.396230 20.396230 0.000000 0 0 14.912657 24.511229 A 80.179229 80.179229 0.000000 0 0 14.874423 23.276291 A 19.799913 19.799913 0.000000 0 0 14.733350 21.561965 A 99.593050 99.593050 0.000000 0 0 14.502770 19.854223" stroke-width="1.000000" fill="none" />
</g>
<line  id="${name.line}4" x1="5.439715" y1="26.839234" x2="15.386434" y2="14.015265" stroke-width="1.000000" />
<line  id="${name.line}6" x1="12.408226" y1="19.486596" x2="16.191040" y2="14.609540" stroke-width="1.000000" />
<line  id="${name.line}14" x1="15.386434" y1="14.015265" x2="18.182238" y2="10.397792" stroke-width="1.000000" />
</g>
</g>
</g>
</svg>