<svg width="31.555141" height="35.895344" viewBox ="0.000000 0.000000 31.555141 35.895344" xmlns="http://www.w3.org/2000/svg"> 
<g id="Modell">
<g id="${name.xy_plane}">
<g id="Icon">
<g id="Drehkolben1">
<path id="${name.arc}11" d=" M 9.353924 9.506430 A 5.000000 5.000000 0.000000 1 1 18.839799 6.480347" stroke="rgb(0,0,0)" stroke-width="1.000000" fill="none" />
<path id="${name.arc}13" d=" M 5.439715 27.796173 A 5.000000 5.000000 0.000000 0 1 3.202448 18.199246" stroke="rgb(0,0,0)" stroke-width="1.000000" fill="none" />
<path id="${name.bezier}13" d=" M 13.870134 22.958141 A 4.905070 4.905070 0.000000 0 1 13.912844 22.957588 A 4.996834 4.996834 0.000000 0 1 13.955858 22.957403" stroke="rgb(0,0,0)" stroke-width="1.000000" fill="none" />
<path id="${name.bezier}8" d=" M 14.792797 23.032206 L 14.791319 23.031933" stroke="rgb(0,0,0)" stroke-width="1.000000" fill="none" />
<path id="${name.bezier}9" d=" M 3.202448 18.199246 A 9.332495 9.332495 0.000000 0 1 4.141316 17.860288 A 18.569063 18.569063 0.000000 0 1 5.049383 17.611312 A 61.545718 61.545718 0.000000 0 1 5.918759 17.403175 A 12.461689 12.461689 0.000000 0 0 6.740457 17.182945 A 7.043401 7.043401 0.000000 0 0 7.505993 16.900052 A 3.990488 3.990488 0.000000 0 0 8.207631 16.504803 A 3.604353 3.604353 0.000000 0 0 8.834342 15.942654 A 4.456574 4.456574 0.000000 0 0 9.382869 15.167542" stroke="rgb(0,0,0)" stroke-width="1.000000" fill="none" />
<path id="${name.bezier}10" d=" M 9.345434 9.508567 A 126.246943 126.246943 0.000000 0 0 9.702344 10.893564 A 8.696560 8.696560 0.000000 0 1 9.951047 12.290250 A 6.094502 6.094502 0.000000 0 1 9.976868 12.996728 A 4.697554 4.697554 0.000000 0 1 9.906713 13.710750 A 4.456468 4.456468 0.000000 0 1 9.715687 14.433598 A 4.837777 4.837777 0.000000 0 1 9.382869 15.167542" stroke="rgb(0,0,0)" stroke-width="1.000000" fill="none" />
<path id="${name.arc}14" d=" M 5.006280 29.986614 A 15.168817 15.168817 0.000000 0 0 23.592352 6.024219" stroke="rgb(0,0,0)" stroke-width="1.000000" fill="none" />
<path id="${name.bezier}11" d=" M 18.839799 6.480348 A 5.367125 5.367125 0.000000 0 1 18.961132 7.816690 A 7.349744 7.349744 0.000000 0 1 18.812087 9.055286 A 12.253111 12.253111 0.000000 0 1 18.508407 10.224792 A 26.303048 26.303048 0.000000 0 0 18.182238 11.354732" stroke="rgb(0,0,0)" stroke-width="1.000000" fill="none" />
<path id="${name.bezier}12" d=" M 18.550480 15.201785 A 4.847392 4.847392 0.000000 0 1 18.522531 15.155050 A 4.947235 4.947235 0.000000 0 1 18.494880 15.107620" stroke="rgb(0,0,0)" stroke-width="1.000000" fill="none" />
</g>
<g id="Kreiselrad1">
<path id="${name.arc}20" d=" M 23.592681 6.023795 A 15.168817 15.168817 0.000000 0 1 5.006586 29.986220" stroke="rgb(0,0,0)" stroke-width="1.000000" fill="none" />
<path id="${name.spline}18" d=" M 10.315574 32.467015 A 105.602374 105.602374 0.000000 0 0 10.950538 31.656601 A 20.658217 20.658217 0.000000 0 0 11.558619 30.831148 A 14.533659 14.533659 0.000000 0 0 12.113016 29.975689 A 9.205946 9.205946 0.000000 0 0 12.587083 29.075328 A 9.241457 9.241457 0.000000 0 0 13.022838 27.927704 A 14.615447 14.615447 0.000000 0 0 13.332932 26.734348 A 20.396230 20.396230 0.000000 0 0 13.556739 25.515927 A 80.179229 80.179229 0.000000 0 0 13.733531 24.293111 A 19.799913 19.799913 0.000000 0 0 13.892290 22.580332 A 99.593050 99.593050 0.000000 0 0 13.961760 20.858495" stroke="rgb(0,0,0)" stroke-width="1.000000" fill="none" />
<path id="${name.arc}17" d=" M 11.632488 19.812040 A 3.115554 3.115554 0.000000 0 1 15.386434 14.972205" stroke="rgb(0,0,0)" stroke-width="1.000000" fill="none" />
<path id="${name.arc}18" d=" M 16.191040 15.566480 A 3.115554 3.115554 0.000000 0 1 12.408226 20.443535" stroke="rgb(0,0,0)" stroke-width="1.000000" fill="none" />
<path id="${name.spline}21" d=" M 8.940288 15.802537 L 8.940871 15.802802" stroke="rgb(0,0,0)" stroke-width="1.000000" fill="none" />
<path id="${name.spline}24" d=" M 17.607945 3.018867 L 17.607807 3.019042" stroke="rgb(0,0,0)" stroke-width="1.000000" fill="none" />
<path id="${name.spline}25" d=" M 27.584777 11.071629 A 105.602374 105.602374 0.000000 0 0 26.555818 11.106142 A 20.658217 20.658217 0.000000 0 0 25.532617 11.170916 A 14.533659 14.533659 0.000000 0 0 24.520938 11.296102 A 9.205946 9.205946 0.000000 0 0 23.526497 11.511687 A 9.241457 9.241457 0.000000 0 0 22.367268 11.915558 A 14.615447 14.615447 0.000000 0 0 21.253780 12.445087 A 20.396230 20.396230 0.000000 0 0 20.176555 13.056826 A 80.179229 80.179229 0.000000 0 0 19.126184 13.707406 A 19.799913 19.799913 0.000000 0 0 17.712071 14.686743 A 99.593050 99.593050 0.000000 0 0 16.348412 15.740302" stroke="rgb(0,0,0)" stroke-width="1.000000" fill="none" />
<path id="${name.spline}26" d=" M 28.536274 13.538593 A 105.602374 105.602374 0.000000 0 0 27.516954 13.393905 A 20.658217 20.658217 0.000000 0 0 26.498050 13.280018 A 14.533659 14.533659 0.000000 0 0 25.480002 13.227626 A 9.205946 9.205946 0.000000 0 0 24.463233 13.267253 A 9.241457 9.241457 0.000000 0 0 23.251484 13.463690 A 14.615447 14.615447 0.000000 0 0 22.062960 13.791819 A 20.396230 20.396230 0.000000 0 0 20.895873 14.207207 A 80.179229 80.179229 0.000000 0 0 19.748488 14.665508 A 19.799913 19.799913 0.000000 0 0 18.185798 15.384408 A 99.593050 99.593050 0.000000 0 0 16.659908 16.185164" stroke="rgb(0,0,0)" stroke-width="1.000000" fill="none" />
<path id="${name.spline}27" d=" M 26.550794 26.205164 A 105.602374 105.602374 0.000000 0 0 26.006425 25.331316 A 20.658217 20.658217 0.000000 0 0 25.438729 24.477585 A 14.533659 14.533659 0.000000 0 0 24.824475 23.664038 A 9.205946 9.205946 0.000000 0 0 24.140553 22.910620 A 9.241457 9.241457 0.000000 0 0 23.211176 22.108633 A 14.615447 14.615447 0.000000 0 0 22.195846 21.409088 A 20.396230 20.396230 0.000000 0 0 21.127452 20.782054 A 80.179229 80.179229 0.000000 0 0 20.038847 20.197696 A 19.799913 19.799913 0.000000 0 0 18.483661 19.462706 A 99.593050 99.593050 0.000000 0 0 16.889423 18.808523" stroke="rgb(0,0,0)" stroke-width="1.000000" fill="none" />
<path id="${name.spline}28" d=" M 24.890089 28.262667 A 105.602374 105.602374 0.000000 0 0 24.505732 27.307566 A 20.658217 20.658217 0.000000 0 0 24.094909 26.368225 A 14.533659 14.533659 0.000000 0 0 23.631258 25.460374 A 9.205946 9.205946 0.000000 0 0 23.088556 24.599640 A 9.241457 9.241457 0.000000 0 0 22.312562 23.648453 A 14.615447 14.615447 0.000000 0 0 21.434132 22.783226 A 20.396230 20.396230 0.000000 0 0 20.490852 21.980192 A 80.179229 80.179229 0.000000 0 0 19.520259 21.215678 A 19.799913 19.799913 0.000000 0 0 18.116329 20.221799 A 99.593050 99.593050 0.000000 0 0 16.659908 19.300718" stroke="rgb(0,0,0)" stroke-width="1.000000" fill="none" />
<path id="${name.spline}29" d=" M 12.927777 32.876476 A 105.602374 105.602374 0.000000 0 0 13.412367 31.968115 A 20.658217 20.658217 0.000000 0 0 13.867872 31.049610 A 14.533659 14.533659 0.000000 0 0 14.265297 30.110877 A 9.205946 9.205946 0.000000 0 0 14.575815 29.141874 A 9.241457 9.241457 0.000000 0 0 14.805667 27.936017 A 14.615447 14.615447 0.000000 0 0 14.903826 26.706943 A 20.396230 20.396230 0.000000 0 0 14.912657 25.468169 A 80.179229 80.179229 0.000000 0 0 14.874423 24.233231 A 19.799913 19.799913 0.000000 0 0 14.733350 22.518905 A 99.593050 99.593050 0.000000 0 0 14.502770 20.811163" stroke="rgb(0,0,0)" stroke-width="1.000000" fill="none" />
</g>
<line  id="${name.line}4" x1="5.439715" y1="27.796173" x2="15.386434" y2="14.972205" stroke="rgb(0,0,0)" stroke-width="1.000000" />
<line  id="${name.line}6" x1="5.006280" y1="29.986614" x2="23.592681" y2="6.023795" stroke="rgb(0,0,0)" stroke-width="1.000000" />
</g>
<line  id="${name.line}14" x1="15.386434" y1="14.972205" x2="18.182238" y2="11.354732" stroke="rgb(0,0,0)" stroke-width="1.000000" />
</g>
</g>
</svg>