<svg width="32.796875" height="18.123859" viewBox ="0.000000 0.000000 32.796875 18.123859" xmlns="http://www.w3.org/2000/svg"> 
<g id="Modell">
<g id="${name.xy_plane}">
<g id="Theory-Icon">
<path id="${name.spline}53" d=" M 6.261207 8.770548 A 3.012238 3.012238 0.000000 0 1 6.745242 8.424362 A 4.906575 4.906575 0.000000 0 1 7.350120 8.129705 A 6.369734 6.369734 0.000000 0 1 8.075403 7.885662 A 10.542295 10.542295 0.000000 0 1 8.921515 7.693511 A 13.322121 13.322121 0.000000 0 1 9.888113 7.551893 A 20.760191 20.760191 0.000000 0 1 10.975393 7.461963 A 25.386436 25.386436 0.000000 0 1 12.183261 7.422767 A 37.129778 37.129778 0.000000 0 1 13.511754 7.435064 A 62.036938 62.036938 0.000000 0 1 16.631342 7.598455 A 77.424361 77.424361 0.000000 0 1 19.916933 7.924237 A 86.288491 86.288491 0.000000 0 1 23.368576 8.411902 A 106.670151 106.670151 0.000000 0 1 26.986204 9.061930" stroke-width="1.000000" fill="none" />
<path id="${name.spline}54" d=" M 6.261207 9.353312 A 3.012238 3.012238 0.000000 0 0 6.745242 9.699498 A 4.906575 4.906575 0.000000 0 0 7.350120 9.994155 A 6.369734 6.369734 0.000000 0 0 8.075403 10.238198 A 10.542295 10.542295 0.000000 0 0 8.921515 10.430349 A 13.322121 13.322121 0.000000 0 0 9.888113 10.571966 A 20.760191 20.760191 0.000000 0 0 10.975393 10.661897 A 25.386436 25.386436 0.000000 0 0 12.183261 10.701093 A 37.129778 37.129778 0.000000 0 0 13.511754 10.688796 A 62.036938 62.036938 0.000000 0 0 16.631342 10.525405 A 77.424361 77.424361 0.000000 0 0 19.916933 10.199623 A 86.288491 86.288491 0.000000 0 0 23.368576 9.711958 A 106.670151 106.670151 0.000000 0 0 26.986204 9.061930" stroke-width="1.000000" fill="none" />
<path id="${name.radius}4" d=" M 6.261207 8.770548 A 0.387508 0.387508 0.000000 0 0 6.261207 9.353312" stroke-width="1.000000" fill="none" />
<g id="${name.group}8">
<g id="${name.group}7">
<path id="${name.arc}61" d=" M 3.884249 3.545778 A 6.991426 6.991426 0.000000 0 1 4.716596 2.977304" stroke-width="1.000000" fill="none" />
<path id="${name.arc}62" d=" M 4.716596 2.977304 A 8.866016 8.866016 0.000000 0 1 5.849054 2.422038" stroke-width="1.000000" fill="none" />
<path id="${name.arc}63" d=" M 5.849054 2.422038 A 10.339723 10.339723 0.000000 0 1 7.005564 2.031552" stroke-width="1.000000" fill="none" />
<path id="${name.arc}64" d=" M 7.005564 2.031552 A 14.481010 14.481010 0.000000 0 1 8.196940 1.759684" stroke-width="1.000000" fill="none" />
<path id="${name.arc}65" d=" M 8.196940 1.759684 A 17.293148 17.293148 0.000000 0 1 9.440012 1.577130" stroke-width="1.000000" fill="none" />
<path id="${name.arc}66" d=" M 9.440012 1.577130 A 24.705011 24.705011 0.000000 0 1 10.750535 1.468288" stroke-width="1.000000" fill="none" />
<path id="${name.arc}67" d=" M 10.750535 1.468288 A 29.362086 29.362086 0.000000 0 1 12.140841 1.423012" stroke-width="1.000000" fill="none" />
<path id="${name.arc}68" d=" M 12.140841 1.423012 A 41.087158 41.087158 0.000000 0 1 13.620332 1.436538" stroke-width="1.000000" fill="none" />
<path id="${name.arc}69" d=" M 13.620332 1.436538 A 66.027072 66.027072 0.000000 0 1 16.935940 1.610078" stroke-width="1.000000" fill="none" />
<path id="${name.arc}70" d=" M 16.935940 1.610078 A 81.410646 81.410646 0.000000 0 1 20.396399 1.953077" stroke-width="1.000000" fill="none" />
<path id="${name.arc}71" d=" M 20.396399 1.953077 A 90.279255 90.279255 0.000000 0 1 24.004137 2.462723" stroke-width="1.000000" fill="none" />
<path id="${name.arc}72" d=" M 24.004137 2.462723 A 110.657481 110.657481 0.000000 0 1 27.761332 3.137751" stroke-width="1.000000" fill="none" />
</g>
<line  id="${name.line}29" x1="3.262200" y1="3.762800" x2="0.010003" y2="3.762800" stroke-width="1.000000" />
<line  id="${name.line}40" x1="27.761332" y1="3.137751" x2="25.867854" y2="0.010001" stroke-width="1.000000" />
<line  id="${name.line}41" x1="27.761332" y1="3.137751" x2="24.858751" y2="5.361062" stroke-width="1.000000" />
<path id="${name.radius}5" d=" M 3.262200 3.762800 A 1.000000 1.000000 0.000000 0 0 3.884249 3.545778" stroke-width="1.000000" fill="none" />
</g>
<g id="${name.group}12">
<g id="${name.group}13">
<path id="${name.arc}86" d=" M 3.884249 14.578082 A 6.991426 6.991426 0.000000 0 0 4.716596 15.146556" stroke-width="1.000000" fill="none" />
<path id="${name.arc}87" d=" M 4.716596 15.146556 A 8.866016 8.866016 0.000000 0 0 5.849054 15.701822" stroke-width="1.000000" fill="none" />
<path id="${name.arc}88" d=" M 5.849054 15.701822 A 10.339723 10.339723 0.000000 0 0 7.005564 16.092308" stroke-width="1.000000" fill="none" />
<path id="${name.arc}89" d=" M 7.005564 16.092308 A 14.481010 14.481010 0.000000 0 0 8.196940 16.364176" stroke-width="1.000000" fill="none" />
<path id="${name.arc}90" d=" M 8.196940 16.364176 A 17.293148 17.293148 0.000000 0 0 9.440012 16.546730" stroke-width="1.000000" fill="none" />
<path id="${name.arc}91" d=" M 9.440012 16.546730 A 24.705011 24.705011 0.000000 0 0 10.750535 16.655571" stroke-width="1.000000" fill="none" />
<path id="${name.arc}92" d=" M 10.750535 16.655571 A 29.362086 29.362086 0.000000 0 0 12.140841 16.700848" stroke-width="1.000000" fill="none" />
<path id="${name.arc}93" d=" M 12.140841 16.700848 A 41.087158 41.087158 0.000000 0 0 13.620332 16.687322" stroke-width="1.000000" fill="none" />
<path id="${name.arc}94" d=" M 13.620332 16.687322 A 66.027072 66.027072 0.000000 0 0 16.935940 16.513782" stroke-width="1.000000" fill="none" />
<path id="${name.arc}95" d=" M 16.935940 16.513782 A 81.410646 81.410646 0.000000 0 0 20.396399 16.170783" stroke-width="1.000000" fill="none" />
<path id="${name.arc}96" d=" M 20.396399 16.170783 A 90.279255 90.279255 0.000000 0 0 24.004137 15.661137" stroke-width="1.000000" fill="none" />
<path id="${name.arc}97" d=" M 24.004137 15.661137 A 110.657481 110.657481 0.000000 0 0 27.761332 14.986108" stroke-width="1.000000" fill="none" />
</g>
<line  id="${name.line}42" x1="3.262200" y1="14.361060" x2="0.010003" y2="14.361060" stroke-width="1.000000" />
<line  id="${name.line}43" x1="27.761332" y1="14.986108" x2="25.867854" y2="18.113859" stroke-width="1.000000" />
<line  id="${name.line}44" x1="27.761332" y1="14.986108" x2="24.858751" y2="12.762798" stroke-width="1.000000" />
<path id="${name.radius}7" d=" M 3.262200 14.361060 A 1.000000 1.000000 0.000000 0 1 3.884249 14.578082" stroke-width="1.000000" fill="none" />
</g>
</g>
</g>
</g>
</svg>